<?xml version="1.0"?>
<svg xmlns="http://www.w3.org/2000/svg" id="Capa_1" enable-background="new 0 0 512 512" height="512px" viewBox="0 0 512 512" width="512px" class=""><g><g><g><path d="m148.5 429.5c19.557 0 36.239-12.539 42.43-30h-84.86c6.191 17.461 22.873 30 42.43 30z" data-original="#000000" class="active-path" data-old_color="#000000" fill="#FFFFFF"/><path d="m264.414 207.117c-76.916-26.713-154.912-26.713-231.828 0-18.893 6.561-31.586 24.577-31.586 44.831v112.552c0 81.332 66.168 147.5 147.5 147.5s147.5-66.168 147.5-147.5v-112.552c0-20.254-12.693-38.27-31.586-44.831zm-214.02 98.345c-5.858-5.858-5.858-15.355 0-21.213 9.51-9.511 22.155-14.749 35.606-14.749s26.096 5.238 35.606 14.749c5.858 5.858 5.858 15.355 0 21.213-2.929 2.928-6.769 4.393-10.606 4.393-3.839 0-7.678-1.464-10.606-4.394-3.845-3.844-8.956-5.961-14.394-5.961s-10.549 2.117-14.394 5.962c-5.857 5.857-15.355 5.858-21.212 0zm98.106 154.038c-41.355 0-75-33.645-75-75 0-8.284 6.716-15 15-15h120c8.284 0 15 6.716 15 15 0 41.355-33.645 75-75 75zm98.106-154.038c-2.929 2.928-6.769 4.393-10.606 4.393-3.839 0-7.678-1.464-10.606-4.394-3.845-3.845-8.956-5.962-14.394-5.962s-10.549 2.117-14.394 5.962c-5.857 5.857-15.355 5.858-21.213 0s-5.858-15.355 0-21.213c9.511-9.511 22.155-14.749 35.606-14.749s26.096 5.238 35.606 14.749c5.86 5.859 5.86 15.356.001 21.214z" data-original="#000000" class="active-path" data-old_color="#000000" fill="#FFFFFF"/></g><g><path d="m363.5 202.418c-18.208 0-33.92 10.872-40.997 26.463.362 1.168.694 2.348 1.002 3.537h82.425c-6.191-17.46-22.873-30-42.43-30z" data-original="#000000" class="active-path" data-old_color="#000000" fill="#FFFFFF"/><path d="m479.414 20.035c-76.915-26.713-154.913-26.713-231.828 0-18.893 6.562-31.586 24.578-31.586 44.832v98.474c19.526 3.605 38.985 8.743 58.257 15.436 12.347 4.288 23.071 11.553 31.51 20.824 13.768-16.595 34.536-27.183 57.733-27.183 41.355 0 75 33.645 75 75 0 8.284-6.716 15-15 15h-97.5v57.692c12.143 3.189 24.679 4.808 37.5 4.808 81.332 0 147.5-66.168 147.5-147.5v-112.551c0-20.254-12.693-38.27-31.586-44.832zm-142.808 97.634c-9.511 9.511-22.155 14.749-35.606 14.749s-26.096-5.238-35.606-14.749c-5.858-5.858-5.858-15.355 0-21.213 5.857-5.857 15.355-5.857 21.213 0 3.845 3.845 8.956 5.962 14.394 5.962s10.549-2.117 14.394-5.962c5.857-5.857 15.355-5.858 21.213 0 5.857 5.858 5.857 15.356-.002 21.213zm125 0c-9.511 9.511-22.155 14.749-35.606 14.749s-26.096-5.238-35.606-14.749c-5.858-5.858-5.858-15.355 0-21.213 5.858-5.857 15.356-5.857 21.213 0 3.845 3.845 8.956 5.962 14.394 5.962s10.549-2.117 14.394-5.962c5.857-5.857 15.355-5.858 21.213 0 5.857 5.858 5.857 15.356-.002 21.213z" data-original="#000000" class="active-path" data-old_color="#000000" fill="#FFFFFF"/></g></g></g> </svg>
